#Comment line ignore any data following # character 
#Hierarchical Translation and Rotation (.htr) file 
[Header]	
#Header keywords are followed by a single value 
FileType HTR		#Single word string
DataType HTRS		#Translation followed by rotation and scale data
FileVersion 1		#integer
NumSegments 64		#integer
NumFrames 3		#integer
DataFrameRate 30		#integer, data frame rate in this file
EulerRotationOrder ZYX
CalibrationUnits mm
RotationUnits Degrees
GlobalAxisofGravity Y
BoneLengthAxis Y
ScaleFactor 1.00
[SegmentNames&Hierarchy]
#CHILD	PARENT
Pinger_Root GLOBAL
Pelvis Pinger_Root
L_Hip Pelvis
R_Hip Pelvis
Rear_Leg01 Pelvis
Spine1 Pelvis
L_Leg01 L_Hip
L_Leg02 L_Leg01
L_Leg03 L_Leg02
L_Foot L_Leg03
L_Toe1_01 L_Foot
L_Toe2_01 L_Foot
L_Toe3_01 L_Foot
planeAlignerLeft L_Foot
L_Toe1_02 L_Toe1_01
L_Toe1_03 L_Toe1_02
L_Toe2_02 L_Toe2_01
L_Toe2_03 L_Toe2_02
L_Toe3_02 L_Toe3_01
L_Toe3_03 L_Toe3_02
planeLockWeightLeft planeAlignerLeft
R_Leg01 R_Hip
R_Leg02 R_Leg01
R_Leg03 R_Leg02
R_Foot R_Leg03
planeAlignerRight R_Foot
R_Toe1_01 R_Foot
R_Toe2_01 R_Foot
R_Toe3_01 R_Foot
planeLockWeightRight planeAlignerRight
R_Toe1_02 R_Toe1_01
R_Toe1_03 R_Toe1_02
R_Toe2_02 R_Toe2_01
R_Toe2_03 R_Toe2_02
R_Toe3_02 R_Toe3_01
R_Toe3_03 R_Toe3_02
Rear_Leg02 Rear_Leg01
Rear_Leg03 Rear_Leg02
Rear_Leg04 Rear_Leg03
Rear_Foot Rear_Leg04
planeAlignerCenter Rear_Foot
Rear_Toe1_01 Rear_Foot
Rear_Toe2_01 Rear_Foot
Rear_Toe3_01 Rear_Foot
planeLockWeightCenter planeAlignerCenter
Rear_Toe1_02 Rear_Toe1_01
Rear_Toe1_03 Rear_Toe1_02
Rear_Toe2_02 Rear_Toe2_01
Rear_Toe2_03 Rear_Toe2_02
Rear_Toe3_02 Rear_Toe3_01
Rear_Toe3_03 Rear_Toe3_02
Back_Bone Spine1
Head Spine1
Motor_Bone Back_Bone
Ping_Mechanism Back_Bone
BN_LookIK Head
bottomMouth Head
L_Mouth01 Head
L_mouthFront Head
mouthGun Head
R_Mouth01 Head
R_mouthFront Head
TopMouth Head
weapon_bone Head
[BasePosition]
#SegmentName Tx, Ty, Tz, Rx, Ry, Rz, BoneLength
Pinger_Root 0.000000 0.000000 0.000000 -90.000000 0.000000 0.000000 10.000000 
Pelvis 0.000000 0.000000 0.000000 0.000000 0.000000 0.000000 10.000000 
L_Hip 0.000000 0.000000 0.000000 0.000000 0.000000 0.000000 10.000000 
R_Hip 0.000000 0.000000 0.000000 0.000000 0.000000 0.000000 10.000000 
Rear_Leg01 0.000000 0.000000 0.000000 0.000000 0.000000 0.000000 10.000000 
Spine1 0.000000 0.000000 0.000000 0.000000 0.000000 0.000000 10.000000 
L_Leg01 0.000000 0.000000 0.000000 0.000000 0.000000 0.000000 10.000000 
L_Leg02 0.000000 0.000000 0.000000 0.000000 0.000000 0.000000 10.000000 
L_Leg03 0.000000 0.000000 0.000000 0.000000 0.000000 0.000000 10.000000 
L_Foot 0.000000 0.000000 0.000000 0.000000 0.000000 0.000000 10.000000 
L_Toe1_01 0.000000 0.000000 0.000000 0.000000 0.000000 0.000000 10.000000 
L_Toe2_01 0.000000 0.000000 0.000000 0.000000 0.000000 0.000000 10.000000 
L_Toe3_01 0.000000 0.000000 0.000000 0.000000 0.000000 0.000000 10.000000 
planeAlignerLeft 0.000000 0.000000 0.000000 0.000000 0.000000 0.000000 10.000000 
L_Toe1_02 0.000000 0.000000 0.000000 0.000000 0.000000 0.000000 10.000000 
L_Toe1_03 0.000000 0.000000 0.000000 0.000000 0.000000 0.000000 10.000000 
L_Toe2_02 0.000000 0.000000 0.000000 0.000000 0.000000 0.000000 10.000000 
L_Toe2_03 0.000000 0.000000 0.000000 0.000000 0.000000 0.000000 10.000000 
L_Toe3_02 0.000000 0.000000 0.000000 0.000000 0.000000 0.000000 10.000000 
L_Toe3_03 0.000000 0.000000 0.000000 0.000000 0.000000 0.000000 10.000000 
planeLockWeightLeft 0.000000 0.000000 0.000000 0.000000 0.000000 0.000000 10.000000 
R_Leg01 0.000000 0.000000 0.000000 0.000000 0.000000 0.000000 10.000000 
R_Leg02 0.000000 0.000000 0.000000 0.000000 0.000000 0.000000 10.000000 
R_Leg03 0.000000 0.000000 0.000000 0.000000 0.000000 0.000000 10.000000 
R_Foot 0.000000 0.000000 0.000000 0.000000 0.000000 0.000000 10.000000 
planeAlignerRight 0.000000 0.000000 0.000000 0.000000 0.000000 0.000000 10.000000 
R_Toe1_01 0.000000 0.000000 0.000000 0.000000 0.000000 0.000000 10.000000 
R_Toe2_01 0.000000 0.000000 0.000000 0.000000 0.000000 0.000000 10.000000 
R_Toe3_01 0.000000 0.000000 0.000000 0.000000 0.000000 0.000000 10.000000 
planeLockWeightRight 0.000000 0.000000 0.000000 0.000000 0.000000 0.000000 10.000000 
R_Toe1_02 0.000000 0.000000 0.000000 0.000000 0.000000 0.000000 10.000000 
R_Toe1_03 0.000000 0.000000 0.000000 0.000000 0.000000 0.000000 10.000000 
R_Toe2_02 0.000000 0.000000 0.000000 0.000000 0.000000 0.000000 10.000000 
R_Toe2_03 0.000000 0.000000 0.000000 0.000000 0.000000 0.000000 10.000000 
R_Toe3_02 0.000000 0.000000 0.000000 0.000000 0.000000 0.000000 10.000000 
R_Toe3_03 0.000000 0.000000 0.000000 0.000000 0.000000 0.000000 10.000000 
Rear_Leg02 0.000000 0.000000 0.000000 0.000000 0.000000 0.000000 10.000000 
Rear_Leg03 0.000000 0.000000 0.000000 0.000000 0.000000 0.000000 10.000000 
Rear_Leg04 0.000000 0.000000 0.000000 0.000000 0.000000 0.000000 10.000000 
Rear_Foot 0.000000 0.000000 0.000000 0.000000 0.000000 0.000000 10.000000 
planeAlignerCenter 0.000000 0.000000 0.000000 0.000000 0.000000 0.000000 10.000000 
Rear_Toe1_01 0.000000 0.000000 0.000000 0.000000 0.000000 0.000000 10.000000 
Rear_Toe2_01 0.000000 0.000000 0.000000 0.000000 0.000000 0.000000 10.000000 
Rear_Toe3_01 0.000000 0.000000 0.000000 0.000000 0.000000 0.000000 10.000000 
planeLockWeightCenter 0.000000 0.000000 0.000000 0.000000 0.000000 0.000000 10.000000 
Rear_Toe1_02 0.000000 0.000000 0.000000 0.000000 0.000000 0.000000 10.000000 
Rear_Toe1_03 0.000000 0.000000 0.000000 0.000000 0.000000 0.000000 10.000000 
Rear_Toe2_02 0.000000 0.000000 0.000000 0.000000 0.000000 0.000000 10.000000 
Rear_Toe2_03 0.000000 0.000000 0.000000 0.000000 0.000000 0.000000 10.000000 
Rear_Toe3_02 0.000000 0.000000 0.000000 0.000000 0.000000 0.000000 10.000000 
Rear_Toe3_03 0.000000 0.000000 0.000000 0.000000 0.000000 0.000000 10.000000 
Back_Bone 0.000000 0.000000 0.000000 0.000000 0.000000 0.000000 10.000000 
Head 0.000000 0.000000 0.000000 0.000000 0.000000 0.000000 10.000000 
Motor_Bone 0.000000 0.000000 0.000000 0.000000 0.000000 0.000000 10.000000 
Ping_Mechanism 0.000000 0.000000 0.000000 0.000000 0.000000 0.000000 10.000000 
BN_LookIK 0.000000 0.000000 0.000000 0.000000 0.000000 0.000000 10.000000 
bottomMouth 0.000000 0.000000 0.000000 0.000000 0.000000 0.000000 10.000000 
L_Mouth01 0.000000 0.000000 0.000000 0.000000 0.000000 0.000000 10.000000 
L_mouthFront 0.000000 0.000000 0.000000 0.000000 0.000000 0.000000 10.000000 
mouthGun 0.000000 0.000000 0.000000 0.000000 0.000000 0.000000 10.000000 
R_Mouth01 0.000000 0.000000 0.000000 0.000000 0.000000 0.000000 10.000000 
R_mouthFront 0.000000 0.000000 0.000000 0.000000 0.000000 0.000000 10.000000 
TopMouth 0.000000 0.000000 0.000000 0.000000 0.000000 0.000000 10.000000 
weapon_bone 0.000000 0.000000 0.000000 0.000000 0.000000 0.000000 10.000000 
#Beginning of Data. Separated by tabs
#Fr	Tx	Ty	Tz	Rx	Ry	Rz	SF
[Pinger_Root]
13 0.000000 0.000000 0.000000 -0.000075 -0.000000 -0.000020 0.000000
14 0.000000 0.000000 0.000000 -0.000075 -0.000000 -0.000020 0.000000
15 0.000000 0.000000 0.000000 -0.000075 -0.000000 -0.000020 0.000000
[Pelvis]
13 -183.296173 2002.485962 3408.479492 -74.142181 -63.633621 57.183403 3957.433594
14 -161.224228 1973.538940 3386.087646 -71.963669 -66.810303 56.540070 3922.555176
15 -115.516190 1909.904541 3378.187012 -69.001480 -70.466934 54.962620 3882.425293
[L_Hip]
13 5.766392 125.831482 872.656799 -38.201485 -81.630600 -19.621130 881.701050
14 5.766392 125.831482 872.656799 -47.751247 -79.954445 -8.650967 881.701050
15 5.766392 125.831482 872.656799 -68.202568 -79.961479 10.253428 881.701050
[R_Hip]
13 5.765438 125.836372 -872.654907 -79.042702 49.162411 -2.696756 881.699829
14 5.765438 125.836372 -872.654907 -83.850418 48.932793 -7.958851 881.699829
15 5.765438 125.836372 -872.654907 -87.246788 49.507114 -13.523981 881.699829
[Rear_Leg01]
13 -192.298416 -925.602966 -0.001907 174.165115 23.572065 -153.253357 945.367432
14 -192.298416 -925.602966 -0.001907 175.178619 21.870258 -149.238983 945.367432
15 -192.298416 -925.602966 -0.001907 175.599457 19.882502 -145.266418 945.367432
[Spine1]
13 290.604584 5.007505 0.000477 2.146352 -19.926542 16.799728 290.647736
14 290.604584 5.007505 0.000477 0.884857 -19.284708 20.475847 290.647736
15 290.604584 5.007505 0.000477 0.442949 -18.026438 24.198780 290.647736
[L_Leg01]
13 761.932007 -0.002384 -0.069261 72.827408 -61.183987 -73.121056 761.932068
14 761.932007 -0.002384 -0.069261 75.787910 -59.439312 -76.264015 761.932068
15 761.932007 -0.002384 -0.069261 73.367226 -55.528404 -73.745560 761.932068
[L_Leg02]
13 1441.140503 -0.000954 -0.000715 7.890261 4.037146 -116.129913 1441.140503
14 1441.140503 -0.000954 -0.000715 7.764689 3.767277 -112.788879 1441.140503
15 1441.140503 -0.000954 -0.000715 7.668276 3.668591 -113.659164 1441.140503
[L_Leg03]
13 1686.963989 -0.000715 -0.000954 -0.138600 0.091544 147.228302 1686.963989
14 1686.963989 -0.000715 -0.000954 -0.133014 0.087358 146.505905 1686.963989
15 1686.963989 -0.000715 -0.000954 -0.133289 0.086938 146.144211 1686.963989
[L_Foot]
13 3041.570068 -30.715107 11.297464 4.087834 43.200878 55.262962 3041.746094
14 3041.570068 -30.715107 11.297464 3.212210 43.345757 52.569614 3041.746094
15 3041.570068 -30.715107 11.297464 1.782628 43.067013 51.036076 3041.746094
[L_Toe1_01]
13 -188.216690 -224.732346 -21.137953 94.115700 -1.626563 -179.630325 293.899567
14 -188.216690 -224.732346 -21.137953 94.115700 -1.626563 -179.630325 293.899567
15 -188.216690 -224.732346 -21.137953 94.115700 -1.626563 -179.630325 293.899567
[L_Toe2_01]
13 200.746536 -219.926590 148.838394 -98.201607 -27.888334 -34.221699 332.896027
14 200.746536 -219.926590 148.838394 -98.201591 -27.888083 -34.222008 332.896027
15 200.746536 -219.926590 148.838394 -98.201569 -27.887829 -34.222294 332.896027
[L_Toe3_01]
13 188.832520 -219.859131 -191.078659 -99.861389 29.451159 -64.657524 347.140900
14 188.832520 -219.859131 -191.078659 -99.860939 29.451435 -64.657448 347.140900
15 188.832520 -219.859131 -191.078659 -99.860489 29.451704 -64.657379 347.140900
[planeAlignerLeft]
13 0.812531 -811.448792 -0.314951 0.000000 -90.000000 -90.001900 811.449280
14 0.812531 -811.448792 -0.314951 0.000000 -90.000000 -90.001900 811.449280
15 0.812531 -811.448792 -0.314951 0.000000 -90.000000 -90.001900 811.449280
[L_Toe1_02]
13 413.761139 0.000477 0.000000 0.001661 0.070897 0.001661 413.761139
14 413.761139 0.000477 0.000000 0.001661 0.070897 0.001661 413.761139
15 413.761139 0.000477 0.000000 0.001661 0.070897 0.001661 413.761139
[L_Toe1_03]
13 464.317322 0.000358 -0.000089 0.001673 -0.448396 -0.003292 464.317322
14 464.317322 0.000358 -0.000089 0.001673 -0.448396 -0.003292 464.317322
15 464.317322 0.000358 -0.000089 0.001673 -0.448396 -0.003292 464.317322
[L_Toe2_02]
13 342.235809 -0.000477 0.000238 0.004684 -81.227058 0.004684 342.235809
14 342.235809 -0.000477 0.000238 0.004684 -81.224190 0.004684 342.235809
15 342.235809 -0.000477 0.000238 0.004684 -81.221344 0.004684 342.235809
[L_Toe2_03]
13 420.210846 -0.000715 0.000000 179.993271 42.301842 -179.999084 420.210846
14 420.210846 -0.000715 0.000000 179.993271 42.301838 -179.999084 420.210846
15 420.210846 -0.000715 0.000000 179.993271 42.301842 -179.999084 420.210846
[L_Toe3_02]
13 329.270111 0.000954 0.000000 0.004675 -84.695114 0.004675 329.270111
14 329.270111 0.000954 0.000000 0.004675 -84.698250 0.004675 329.270111
15 329.270111 0.000954 0.000000 0.004675 -84.701393 0.004675 329.270111
[L_Toe3_03]
13 439.137451 -0.001907 0.000954 179.993088 46.274670 -179.999390 439.137451
14 439.137451 -0.001907 0.000954 179.993088 46.274670 -179.999390 439.137451
15 439.137451 -0.001907 0.000954 179.993088 46.274662 -179.999390 439.137451
[planeLockWeightLeft]
13 -0.000954 0.000238 -0.000305 -0.011826 -0.004376 0.005620 0.001029
14 -0.000954 0.000238 -0.000305 -0.011826 -0.004376 0.005620 0.001029
15 -0.000954 0.000238 -0.000305 -0.011826 -0.004376 0.005620 0.001029
[R_Leg01]
13 761.455627 -0.001907 -0.000358 113.412186 -16.171627 93.412613 761.455688
14 761.455627 -0.001907 -0.000358 109.620499 -11.668711 97.018982 761.455688
15 761.455627 -0.001907 -0.000358 104.461655 -5.781178 99.312416 761.455688
[R_Leg02]
13 1441.140625 0.000000 -0.000238 -2.241689 -0.878231 -106.984879 1441.140625
14 1441.140625 0.000000 -0.000238 -2.203781 -0.814353 -102.001030 1441.140625
15 1441.140625 0.000000 -0.000238 -2.178782 -0.763264 -97.559647 1441.140625
[R_Leg03]
13 1686.963989 0.000954 0.001431 0.120812 -0.076359 143.357529 1686.963989
14 1686.963989 0.000954 0.001431 0.118007 -0.074285 142.867126 1686.963989
15 1686.963989 0.000954 0.001431 0.115185 -0.072236 142.376709 1686.963989
[R_Foot]
13 3041.560059 -30.531288 -11.204481 5.404413 -9.407642 50.598843 3041.734131
14 3041.560059 -30.531288 -11.204481 4.845634 -9.043056 48.094925 3041.734131
15 3041.560059 -30.531288 -11.204481 3.679863 -9.940870 45.349575 3041.734131
[planeAlignerRight]
13 -0.635147 -812.270569 -0.364304 0.000000 -89.960434 -90.005180 812.270874
14 -0.635147 -812.270569 -0.364304 0.000000 -89.960434 -90.005180 812.270874
15 -0.635147 -812.270569 -0.364304 0.000000 -89.960434 -90.005180 812.270874
[R_Toe1_01]
13 -188.383347 -224.864899 21.052242 77.328094 -4.355067 -175.446396 294.101532
14 -188.383347 -224.864899 21.052242 77.327209 -4.357084 -175.432922 294.101532
15 -188.383347 -224.864899 21.052242 77.326309 -4.359100 -175.419449 294.101532
[R_Toe2_01]
13 200.637817 -220.002121 -148.787384 -84.724464 32.131771 -46.480881 332.857574
14 200.637817 -220.002121 -148.787384 -84.724449 32.131760 -46.480865 332.857574
15 200.637817 -220.002121 -148.787384 -84.724442 32.131763 -46.480862 332.857574
[R_Toe3_01]
13 188.606735 -220.092957 191.126343 -71.138863 -17.464327 -68.389969 347.192566
14 188.606735 -220.092957 191.126343 -71.137581 -17.467955 -68.392624 347.192566
15 188.606735 -220.092957 191.126343 -71.136307 -17.471579 -68.395271 347.192566
[planeLockWeightRight]
13 -0.000477 0.000000 0.000000 -0.011823 -0.004379 -0.000027 0.000477
14 -0.000477 0.000000 0.000000 -0.011823 -0.004379 -0.000027 0.000477
15 -0.000477 0.000000 0.000000 -0.011823 -0.004379 -0.000027 0.000477
[R_Toe1_02]
13 413.762085 0.000477 -0.000119 0.001385 -25.855608 0.001385 413.762085
14 413.762085 0.000477 -0.000119 0.001385 -25.851427 0.001385 413.762085
15 413.762085 0.000477 -0.000119 0.001385 -25.847256 0.001385 413.762085
[R_Toe1_03]
13 464.317810 0.000000 0.001088 0.004309 58.392216 0.004309 464.317810
14 464.317810 0.000000 0.001088 0.004309 58.392216 0.004309 464.317810
15 464.317810 0.000000 0.001088 0.004309 58.392216 0.004309 464.317810
[R_Toe2_02]
13 342.234741 -0.000954 0.000238 -0.002336 -78.160423 -0.002336 342.234741
14 342.234741 -0.000954 0.000238 -0.002336 -78.160080 -0.002336 342.234741
15 342.234741 -0.000954 0.000238 -0.002336 -78.159691 -0.002336 342.234741
[R_Toe2_03]
13 420.210846 0.000715 -0.000268 -179.993973 74.504837 -179.997513 420.210846
14 420.210846 0.000715 -0.000268 -179.993973 74.505203 -179.997513 420.210846
15 420.210846 0.000715 -0.000268 -179.993973 74.505531 -179.997513 420.210846
[R_Toe3_02]
13 329.270355 -0.000477 -0.000954 0.001177 -80.759201 0.001177 329.270355
14 329.270355 -0.000477 -0.000954 0.001177 -80.759201 0.001177 329.270355
15 329.270355 -0.000477 -0.000954 0.001177 -80.759201 0.001177 329.270355
[R_Toe3_03]
13 439.137939 0.000238 0.001431 -179.996521 77.409958 -179.992996 439.137939
14 439.137939 0.000238 0.001431 -179.996521 77.410309 -179.992996 439.137939
15 439.137939 0.000238 0.001431 -179.996521 77.410629 -179.992996 439.137939
[Rear_Leg02]
13 1162.777710 -0.029802 0.005960 9.616995 17.888203 -66.117203 1162.777710
14 1162.777710 -0.029802 0.005960 8.221110 18.620663 -70.828499 1162.777710
15 1162.777710 -0.029802 0.005960 5.468105 18.866072 -78.965973 1162.777710
[Rear_Leg03]
13 607.192505 -0.013351 -0.073195 0.006450 0.004372 47.669926 607.192505
14 607.192505 -0.013351 -0.073195 0.008774 0.003204 49.881447 607.192505
15 607.192505 -0.013351 -0.073195 0.007762 0.000716 53.518326 607.192505
[Rear_Leg04]
13 995.874512 -0.020504 -0.011921 -0.032414 -0.012623 30.076561 995.874573
14 995.874512 -0.020504 -0.011921 -0.033458 -0.014056 33.349373 995.874573
15 995.874512 -0.020504 -0.011921 -0.035752 -0.017081 38.926743 995.874573
[Rear_Foot]
13 3096.176270 -0.067472 -0.041425 39.424007 67.516510 -110.656288 3096.176270
14 3096.176270 -0.067472 -0.041425 39.723637 67.839966 -110.838211 3096.176270
15 3096.176270 -0.067472 -0.041425 40.684311 69.127708 -111.255768 3096.176270
[planeAlignerCenter]
13 0.350077 0.966311 -838.790894 0.000009 0.000003 -179.999985 838.791565
14 0.350077 0.966311 -838.790894 0.000009 0.000003 -179.999985 838.791565
15 0.350077 0.966311 -838.790894 0.000009 0.000003 -179.999985 838.791565
[Rear_Toe1_01]
13 0.653352 83.966492 -371.173737 0.733893 21.633009 91.238197 380.553192
14 0.653352 83.966492 -371.173737 0.763579 21.379612 91.317299 380.553192
15 0.653352 83.966492 -371.173737 0.714644 22.071474 91.203804 380.553192
[Rear_Toe2_01]
13 178.200760 -294.826019 -362.060547 -8.364385 15.799862 -70.342117 499.765686
14 178.200760 -294.826019 -362.060547 -8.309897 14.120449 -70.414848 499.765686
15 178.200760 -294.826019 -362.060547 -8.348804 15.939610 -70.314278 499.765686
[Rear_Toe3_01]
13 -153.359680 -308.780914 -362.060852 3.768598 10.959783 -110.027924 499.952881
14 -153.359680 -308.780914 -362.060852 3.733541 7.717867 -110.026131 499.952881
15 -153.359680 -308.780914 -362.060852 3.763717 11.067801 -109.993477 499.952881
[planeLockWeightCenter]
13 -0.000062 0.000238 0.000000 -0.011814 -0.004373 -0.000015 0.000246
14 -0.000062 0.000238 0.000000 -0.011814 -0.004373 -0.000015 0.000246
15 -0.000062 0.000238 0.000000 -0.011814 -0.004373 -0.000015 0.000246
[Rear_Toe1_02]
13 379.707825 0.194073 0.000477 -0.006706 -30.424292 -0.006706 379.707855
14 379.707825 0.194073 0.000477 -0.006718 -30.070797 -0.006718 379.707855
15 379.707825 0.194073 0.000477 -0.006704 -30.475554 -0.006704 379.707855
[Rear_Toe1_03]
13 500.129700 0.165701 0.000119 -179.994354 72.983307 -179.997894 500.129761
14 500.129700 0.165701 0.000119 -179.994766 70.923729 -179.998306 500.129761
15 500.129700 0.165701 0.000119 -179.994278 73.278893 -179.997818 500.129761
[Rear_Toe2_02]
13 340.494507 0.000238 -0.000954 0.001288 -41.318851 0.001288 340.494507
14 340.494507 0.000238 -0.000954 0.001313 -36.706593 0.001313 340.494507
15 340.494507 0.000238 -0.000954 0.001290 -40.875221 0.001290 340.494507
[Rear_Toe2_03]
13 433.103577 0.000000 0.000238 -0.003219 35.254078 0.000719 433.103546
14 433.103577 0.000000 0.000238 -0.003174 30.766136 0.000848 433.103546
15 433.103577 0.000000 0.000238 -0.003214 34.823647 0.000732 433.103546
[Rear_Toe3_02]
13 340.494141 -0.000358 -0.000477 -0.002701 -28.669897 -0.002701 340.494171
14 340.494141 -0.000358 -0.000477 0.002370 -20.558880 -0.003769 340.494171
15 340.494141 -0.000358 -0.000477 -0.002707 -28.220955 -0.002707 340.494171
[Rear_Toe3_03]
13 433.103577 0.001431 -0.000238 0.006321 23.368431 -0.002048 433.103546
14 433.103577 0.001431 -0.000238 0.006327 16.268225 -0.002414 433.103546
15 433.103577 0.001431 -0.000238 0.006319 22.969648 -0.002068 433.103546
[Back_Bone]
13 1312.175781 -701.934692 0.000954 5.476171 -3.322767 -66.893288 1488.125488
14 1312.175781 -701.934692 0.000954 4.764767 -2.291543 -69.377892 1488.125488
15 1312.175781 -701.934692 0.000954 4.336647 -0.328625 -72.972702 1488.125488
[Head]
13 1406.159424 809.709290 0.001431 -0.473307 -1.504634 30.370283 1622.625488
14 1406.159424 809.709290 0.001431 -0.678273 -1.437524 35.619183 1622.625488
15 1406.159424 809.709290 0.001431 -0.810034 -1.376124 40.386288 1622.625488
[Motor_Bone]
13 1158.364380 -417.834747 0.000477 -9.805911 0.495189 -121.127640 1231.419434
14 1158.364380 -417.834747 0.000477 -8.247004 -3.589464 -116.766716 1231.419434
15 1158.364380 -417.834747 0.000477 -4.882376 -8.817383 -121.197380 1231.419434
[Ping_Mechanism]
13 1300.541992 -513.538208 63.409492 0.000103 -0.000053 82.120995 1399.697021
14 1290.087769 -502.205200 58.621437 0.000103 -0.000053 82.120995 1385.630859
15 1277.560669 -487.675720 54.740124 0.000103 -0.000053 82.120995 1368.570557
[BN_LookIK]
13 193.241119 1380.371704 -0.002861 0.000000 89.965736 -31.038179 1393.832153
14 193.241119 1380.371704 -0.002861 0.000000 89.965736 -31.038179 1393.832153
15 193.241119 1380.371704 -0.002861 0.000000 89.965736 -31.038179 1393.832153
[bottomMouth]
13 -435.092926 615.759399 -0.000954 -0.000022 0.000016 73.527184 753.966492
14 -435.092926 615.759399 -0.000954 -0.000022 0.000016 73.527184 753.966492
15 -435.092926 615.759399 -0.000954 -0.000022 0.000016 73.527184 753.966492
[L_Mouth01]
13 554.440979 7.658243 838.222046 150.204178 23.759130 109.605339 1005.027161
14 554.440979 7.658243 838.222046 150.204178 23.759130 109.605339 1005.027161
15 554.440979 7.658243 838.222046 150.204178 23.759130 109.605339 1005.027161
[L_mouthFront]
13 551.629089 934.514771 339.150421 0.000081 2.804060 79.119301 1136.941284
14 551.629089 934.514771 339.150421 0.000081 2.804060 79.119301 1136.941284
15 551.629089 934.514771 339.150421 0.000081 2.804060 79.119301 1136.941284
[mouthGun]
13 55.332661 1627.420898 0.000000 0.000023 0.000009 -11.038128 1628.361328
14 55.332661 1627.420898 0.000000 0.000023 0.000009 -11.038128 1628.361328
15 55.332661 1627.420898 0.000000 0.000023 0.000009 -11.038128 1628.361328
[R_Mouth01]
13 554.442383 7.659197 -838.223938 29.795891 -23.759109 109.605331 1005.029541
14 554.442383 7.659197 -838.223938 29.795891 -23.759109 109.605331 1005.029541
15 554.442383 7.659197 -838.223938 29.795891 -23.759109 109.605331 1005.029541
[R_mouthFront]
13 551.629089 934.514282 -339.151367 0.000029 -2.803930 79.119133 1136.941162
14 551.629089 934.514282 -339.151367 0.000029 -2.803930 79.119133 1136.941162
15 551.629089 934.514282 -339.151367 0.000029 -2.803930 79.119133 1136.941162
[TopMouth]
13 461.269867 -56.106091 -0.008583 -0.000059 -0.000268 92.025169 464.669525
14 461.269867 -56.106091 -0.008583 -0.000059 -0.000268 92.025169 464.669525
15 461.269867 -56.106091 -0.008583 -0.000059 -0.000268 92.025169 464.669525
[weapon_bone]
13 -987.239868 1448.372803 0.001431 0.000000 89.965736 -31.038221 1752.833740
14 -987.239868 1448.372803 0.001431 0.000000 89.965736 -31.038221 1752.833740
15 -987.239868 1448.372803 0.001431 0.000000 89.965736 -31.038221 1752.833740
